<?xml version="1.0" standalone="no"?><!DOCTYPE svg PUBLIC "-//W3C//DTD SVG 1.1//EN" "http://www.w3.org/Graphics/SVG/1.1/DTD/svg11.dtd"><svg t="1671680983150" class="icon" viewBox="0 0 1024 1024" version="1.1" xmlns="http://www.w3.org/2000/svg" p-id="1537" xmlns:xlink="http://www.w3.org/1999/xlink" width="200" height="200"><path d="M810.666667 960H213.333333c-34.133333 0-64-29.866667-64-64V128c0-34.133333 29.866667-64 64-64h597.333334c34.133333 0 64 29.866667 64 64v768c0 34.133333-29.866667 64-64 64zM213.333333 106.666667c-12.8 0-21.333333 8.533333-21.333333 21.333333v768c0 12.8 8.533333 21.333333 21.333333 21.333333h597.333334c12.8 0 21.333333-8.533333 21.333333-21.333333V128c0-12.8-8.533333-21.333333-21.333333-21.333333H213.333333z" p-id="1538" fill="#ffffff"></path><path d="M704 490.666667c-4.266667 0-12.8-4.266667-17.066667-8.533334l-110.933333-119.466666-110.933333 119.466666c-4.266667 4.266667-17.066667 8.533333-21.333334 4.266667-12.8 0-17.066667-8.533333-17.066666-17.066667V85.333333c0-12.8 8.533333-21.333333 21.333333-21.333333h256c12.8 0 21.333333 8.533333 21.333333 21.333333v384c0 8.533333-4.266667 17.066667-12.8 21.333334h-8.533333z m-128-174.933334c4.266667 0 12.8 4.266667 17.066667 8.533334L682.666667 418.133333V106.666667h-213.333334v311.466666l89.6-93.866666c4.266667-8.533333 12.8-8.533333 17.066667-8.533334z" p-id="1539" fill="#ffffff"></path><path d="M213.333333 64h597.333334v42.666667H213.333333z" p-id="1540" fill="#ffffff"></path></svg>