<?xml version="1.0" standalone="no"?><!DOCTYPE svg PUBLIC "-//W3C//DTD SVG 1.1//EN" "http://www.w3.org/Graphics/SVG/1.1/DTD/svg11.dtd"><svg t="1671681018368" class="icon" viewBox="0 0 1024 1024" version="1.1" xmlns="http://www.w3.org/2000/svg" p-id="1729" xmlns:xlink="http://www.w3.org/1999/xlink" width="200" height="200"><path d="M571.733333 942.933333c-25.6 0-51.2-8.533333-68.266666-29.866666l-345.6-345.6c-4.266667-4.266667-4.266667-8.533333-4.266667-17.066667V170.666667c0-12.8 8.533333-21.333333 21.333333-21.333334h384c4.266667 0 12.8 4.266667 17.066667 4.266667l345.6 345.6c38.4 38.4 38.4 98.133333 0 136.533333L640 913.066667c-21.333333 21.333333-42.666667 29.866667-68.266667 29.866666z m-379.733333-396.8l337.066667 337.066667c21.333333 21.333333 55.466667 21.333333 76.8 0l277.333333-277.333333c21.333333-21.333333 21.333333-55.466667 0-76.8l-337.066667-337.066667H192v354.133333z" p-id="1730" fill="#ffffff"></path><path d="M392.533333 448c29.866667 0 51.2-25.6 51.2-51.2S422.4 341.333333 392.533333 341.333333 341.333333 366.933333 341.333333 392.533333s25.6 55.466667 51.2 55.466667z" p-id="1731" fill="#ffffff"></path></svg>