<?xml version="1.0" standalone="no"?><!DOCTYPE svg PUBLIC "-//W3C//DTD SVG 1.1//EN" "http://www.w3.org/Graphics/SVG/1.1/DTD/svg11.dtd"><svg t="1671681046134" class="icon" viewBox="0 0 1024 1024" version="1.1" xmlns="http://www.w3.org/2000/svg" p-id="1920" xmlns:xlink="http://www.w3.org/1999/xlink" width="200" height="200"><path d="M874.666667 938.666667h-725.333334c-34.133333 0-64-29.866667-64-64v-469.333334c0-12.8 8.533333-21.333333 21.333334-21.333333h810.666666c12.8 0 21.333333 8.533333 21.333334 21.333333v469.333334c0 34.133333-29.866667 64-64 64zM128 426.666667v448c0 12.8 8.533333 21.333333 21.333333 21.333333h725.333334c12.8 0 21.333333-8.533333 21.333333-21.333333V426.666667H128z" p-id="1921" fill="#ffffff"></path><path d="M917.333333 426.666667h-810.666666c-12.8 0-21.333333-8.533333-21.333334-21.333334V213.333333c0-34.133333 29.866667-64 64-64h725.333334c34.133333 0 64 29.866667 64 64v192c0 12.8-8.533333 21.333333-21.333334 21.333334zM128 384h768V213.333333c0-12.8-8.533333-21.333333-21.333333-21.333333h-725.333334c-12.8 0-21.333333 8.533333-21.333333 21.333333v170.666667zM469.333333 810.666667c-4.266667 0-12.8 0-17.066666-4.266667l-128-128 29.866666-29.866667 110.933334 110.933334 238.933333-238.933334 29.866667 29.866667-256 256c4.266667 4.266667-4.266667 4.266667-8.533334 4.266667z" p-id="1922" fill="#ffffff"></path><path d="M320 106.666667h42.666667v170.666666h-42.666667zM661.333333 106.666667h42.666667v170.666666h-42.666667z" p-id="1923" fill="#ffffff"></path></svg>